HIERARCHY
ROOT Root
{
  OFFSET 0.0 0.0 0.0
  CHANNELS 6 Xposition Yposition Zposition Zrotation Yrotation Xrotation
  JOINT Hips
  {
    OFFSET 0.0 100.0 0.0
    CHANNELS 6 Xposition Yposition Zposition Zrotation Yrotation Xrotation
    JOINT Spine1
    {
      OFFSET 5.003913 -0.037094 -0.013727
      CHANNELS 3 Zrotation Yrotation Xrotation
      JOINT Spine2
      {
        OFFSET 7.125363 -1e-06 0.0
        CHANNELS 3 Zrotation Yrotation Xrotation
        JOINT Chest
        {
          OFFSET 7.594027 1e-06 0.0
          CHANNELS 3 Zrotation Yrotation Xrotation
          JOINT Neck1
          {
            OFFSET 26.313086 -0.460272 -0.181672
            CHANNELS 3 Zrotation Yrotation Xrotation
            JOINT Neck2
            {
              OFFSET 8.045911 0.0 0.0
              CHANNELS 3 Zrotation Yrotation Xrotation
              JOINT Head
              {
                OFFSET 6.432774 0.0 0.0
                CHANNELS 3 Zrotation Yrotation Xrotation
                JOINT HeadEnd
                {
                  OFFSET 16.169773 0.06451 0.00362
                  CHANNELS 3 Zrotation Yrotation Xrotation
                }
                JOINT Jaw
                {
                  OFFSET 0.108741 3.12938 0.002639
                  CHANNELS 3 Zrotation Yrotation Xrotation
                }
                JOINT LeftEye
                {
                  OFFSET 4.45173 8.166359 3.206392
                  CHANNELS 3 Zrotation Yrotation Xrotation
                }
                JOINT RightEye
                {
                  OFFSET 4.436895 8.135758 -3.222429
                  CHANNELS 3 Zrotation Yrotation Xrotation
                }
              }
            }
          }
          JOINT LeftShoulder
          {
            OFFSET 23.218927 5.195579 1.621656
            CHANNELS 3 Zrotation Yrotation Xrotation
            JOINT LeftArm
            {
              OFFSET 15.902118 2e-06 -2e-06
              CHANNELS 3 Zrotation Yrotation Xrotation
              JOINT LeftForeArm
              {
                OFFSET 28.739307 0.0 -1e-06
                CHANNELS 3 Zrotation Yrotation Xrotation
                JOINT LeftHand
                {
                  OFFSET 27.093981 -4e-06 0.0
                  CHANNELS 3 Zrotation Yrotation Xrotation
                  JOINT LeftHandThumb1
                  {
                    OFFSET 2.276781 3.380274 0.83384
                    CHANNELS 3 Zrotation Yrotation Xrotation
                    JOINT LeftHandThumb2
                    {
                      OFFSET 4.705309 -1e-06 -1e-06
                      CHANNELS 3 Zrotation Yrotation Xrotation
                      JOINT LeftHandThumb3
                      {
                        OFFSET 2.798515 0.0 3e-06
                        CHANNELS 3 Zrotation Yrotation Xrotation
                        JOINT LeftHandThumbEnd
                        {
                          OFFSET 3.180793 4e-06 -4e-06
                          CHANNELS 3 Zrotation Yrotation Xrotation
                        }
                      }
                    }
                  }
                  JOINT LeftHandIndex1
                  {
                    OFFSET 3.247786 2.352677 0.137192
                    CHANNELS 3 Zrotation Yrotation Xrotation
                    JOINT LeftHandIndex2
                    {
                      OFFSET 6.367095 1e-06 0.0
                      CHANNELS 3 Zrotation Yrotation Xrotation
                      JOINT LeftHandIndex3
                      {
                        OFFSET 3.662364 0.0 0.0
                        CHANNELS 3 Zrotation Yrotation Xrotation
                        JOINT LeftHandIndex4
                        {
                          OFFSET 2.329242 4e-06 -4e-06
                          CHANNELS 3 Zrotation Yrotation Xrotation
                          JOINT LeftHandIndexEnd
                          {
                            OFFSET 2.767823 1e-06 0.0
                            CHANNELS 3 Zrotation Yrotation Xrotation
                          }
                        }
                      }
                    }
                  }
                  JOINT LeftHandMiddle1
                  {
                    OFFSET 3.163612 0.945023 -0.406112
                    CHANNELS 3 Zrotation Yrotation Xrotation
                    JOINT LeftHandMiddle2
                    {
                      OFFSET 6.276789 3e-06 0.0
                      CHANNELS 3 Zrotation Yrotation Xrotation
                      JOINT LeftHandMiddle3
                      {
                        OFFSET 4.35652 -1e-06 4e-06
                        CHANNELS 3 Zrotation Yrotation Xrotation
                        JOINT LeftHandMiddle4
                        {
                          OFFSET 2.996877 0.0 8e-06
                          CHANNELS 3 Zrotation Yrotation Xrotation
                          JOINT LeftHandMiddleEnd
                          {
                            OFFSET 2.323256 3e-06 -4e-06
                            CHANNELS 3 Zrotation Yrotation Xrotation
                          }
                        }
                      }
                    }
                  }
                  JOINT LeftHandRing1
                  {
                    OFFSET 2.882606 -0.309162 0.107445
                    CHANNELS 3 Zrotation Yrotation Xrotation
                    JOINT LeftHandRing2
                    {
                      OFFSET 6.033198 0.0 4e-06
                      CHANNELS 3 Zrotation Yrotation Xrotation
                      JOINT LeftHandRing3
                      {
                        OFFSET 4.350578 3e-06 0.0
                        CHANNELS 3 Zrotation Yrotation Xrotation
                        JOINT LeftHandRing4
                        {
                          OFFSET 2.651321 2e-06 -7e-06
                          CHANNELS 3 Zrotation Yrotation Xrotation
                          JOINT LeftHandRingEnd
                          {
                            OFFSET 1.937663 1e-06 -4e-06
                            CHANNELS 3 Zrotation Yrotation Xrotation
                          }
                        }
                      }
                    }
                  }
                  JOINT LeftHandPinky1
                  {
                    OFFSET 2.865315 -1.525436 0.575687
                    CHANNELS 3 Zrotation Yrotation Xrotation
                    JOINT LeftHandPinky2
                    {
                      OFFSET 5.54936 1e-06 -8e-06
                      CHANNELS 3 Zrotation Yrotation Xrotation
                      JOINT LeftHandPinky3
                      {
                        OFFSET 3.070974 0.0 -4e-06
                        CHANNELS 3 Zrotation Yrotation Xrotation
                        JOINT LeftHandPinky4
                        {
                          OFFSET 1.549672 1e-06 0.0
                          CHANNELS 3 Zrotation Yrotation Xrotation
                          JOINT LeftHandPinkyEnd
                          {
                            OFFSET 1.952123 0.0 0.0
                            CHANNELS 3 Zrotation Yrotation Xrotation
                          }
                        }
                      }
                    }
                  }
                }
              }
            }
          }
          JOINT RightShoulder
          {
            OFFSET 23.161716 5.296122 -1.380114
            CHANNELS 3 Zrotation Yrotation Xrotation
            JOINT RightArm
            {
              OFFSET -16.027195 -2e-06 1.1e-05
              CHANNELS 3 Zrotation Yrotation Xrotation
              JOINT RightForeArm
              {
                OFFSET -28.736639 4e-06 2e-06
                CHANNELS 3 Zrotation Yrotation Xrotation
                JOINT RightHand
                {
                  OFFSET -27.133619 6e-06 0.0
                  CHANNELS 3 Zrotation Yrotation Xrotation
                  JOINT RightHandThumb1
                  {
                    OFFSET -2.274328 -3.351035 -0.83067
                    CHANNELS 3 Zrotation Yrotation Xrotation
                    JOINT RightHandThumb2
                    {
                      OFFSET -4.703594 -3e-06 2e-06
                      CHANNELS 3 Zrotation Yrotation Xrotation
                      JOINT RightHandThumb3
                      {
                        OFFSET -2.794935 -4e-06 -3e-06
                        CHANNELS 3 Zrotation Yrotation Xrotation
                        JOINT RightHandThumbEnd
                        {
                          OFFSET -3.183852 4e-06 1e-06
                          CHANNELS 3 Zrotation Yrotation Xrotation
                        }
                      }
                    }
                  }
                  JOINT RightHandIndex1
                  {
                    OFFSET -3.253496 -2.33755 -0.127667
                    CHANNELS 3 Zrotation Yrotation Xrotation
                    JOINT RightHandIndex2
                    {
                      OFFSET -6.344434 0.0 0.0
                      CHANNELS 3 Zrotation Yrotation Xrotation
                      JOINT RightHandIndex3
                      {
                        OFFSET -3.654871 0.0 -8e-06
                        CHANNELS 3 Zrotation Yrotation Xrotation
                        JOINT RightHandIndex4
                        {
                          OFFSET -2.327586 -1e-06 0.0
                          CHANNELS 3 Zrotation Yrotation Xrotation
                          JOINT RightHandIndexEnd
                          {
                            OFFSET -2.770001 3e-06 8e-06
                            CHANNELS 3 Zrotation Yrotation Xrotation
                          }
                        }
                      }
                    }
                  }
                  JOINT RightHandMiddle1
                  {
                    OFFSET -3.168223 -0.944764 0.411762
                    CHANNELS 3 Zrotation Yrotation Xrotation
                    JOINT RightHandMiddle2
                    {
                      OFFSET -6.266691 -1e-06 -4e-06
                      CHANNELS 3 Zrotation Yrotation Xrotation
                      JOINT RightHandMiddle3
                      {
                        OFFSET -4.348901 0.0 0.0
                        CHANNELS 3 Zrotation Yrotation Xrotation
                        JOINT RightHandMiddle4
                        {
                          OFFSET -3.00024 2e-06 -4e-06
                          CHANNELS 3 Zrotation Yrotation Xrotation
                          JOINT RightHandMiddleEnd
                          {
                            OFFSET -2.321477 -4e-06 -4e-06
                            CHANNELS 3 Zrotation Yrotation Xrotation
                          }
                        }
                      }
                    }
                  }
                  JOINT RightHandRing1
                  {
                    OFFSET -2.885654 0.293261 -0.119232
                    CHANNELS 3 Zrotation Yrotation Xrotation
                    JOINT RightHandRing2
                    {
                      OFFSET -6.032835 -1e-06 -4e-06
                      CHANNELS 3 Zrotation Yrotation Xrotation
                      JOINT RightHandRing3
                      {
                        OFFSET -4.33881 0.0 -4e-06
                        CHANNELS 3 Zrotation Yrotation Xrotation
                        JOINT RightHandRing4
                        {
                          OFFSET -2.654903 -4e-06 -4e-06
                          CHANNELS 3 Zrotation Yrotation Xrotation
                          JOINT RightHandRingEnd
                          {
                            OFFSET -1.935122 0.0 4e-06
                            CHANNELS 3 Zrotation Yrotation Xrotation
                          }
                        }
                      }
                    }
                  }
                  JOINT RightHandPinky1
                  {
                    OFFSET -2.866241 1.503904 -0.60527
                    CHANNELS 3 Zrotation Yrotation Xrotation
                    JOINT RightHandPinky2
                    {
                      OFFSET -5.553177 -2e-06 0.0
                      CHANNELS 3 Zrotation Yrotation Xrotation
                      JOINT RightHandPinky3
                      {
                        OFFSET -3.062664 -1e-06 -4e-06
                        CHANNELS 3 Zrotation Yrotation Xrotation
                        JOINT RightHandPinky4
                        {
                          OFFSET -1.546529 2e-06 4e-06
                          CHANNELS 3 Zrotation Yrotation Xrotation
                          JOINT RightHandPinkyEnd
                          {
                            OFFSET -1.952341 0.0 -4e-06
                            CHANNELS 3 Zrotation Yrotation Xrotation
                          }
                        }
                      }
                    }
                  }
                }
              }
            }
          }
        }
      }
    }
    JOINT LeftLeg
    {
      OFFSET -8.443107 2.567604 10.043214
      CHANNELS 3 Zrotation Yrotation Xrotation
      JOINT LeftShin
      {
        OFFSET 43.229198 1e-06 -1e-06
        CHANNELS 3 Zrotation Yrotation Xrotation
        JOINT LeftFoot
        {
          OFFSET 42.298611 1e-06 1e-06
          CHANNELS 3 Zrotation Yrotation Xrotation
          JOINT LeftToeBase
          {
            OFFSET 14.165858 1e-06 0.0
            CHANNELS 3 Zrotation Yrotation Xrotation
            JOINT LeftToeEnd
            {
              OFFSET 6.7141 -0.234461 0.0
              CHANNELS 3 Zrotation Yrotation Xrotation
            }
          }
        }
      }
    }
    JOINT RightLeg
    {
      OFFSET -8.303923 2.592729 -10.047278
      CHANNELS 3 Zrotation Yrotation Xrotation
      JOINT RightShin
      {
        OFFSET -43.369682 0.0 1e-06
        CHANNELS 3 Zrotation Yrotation Xrotation
        JOINT RightFoot
        {
          OFFSET -42.260784 4e-06 2e-06
          CHANNELS 3 Zrotation Yrotation Xrotation
          JOINT RightToeBase
          {
            OFFSET -14.222245 -2e-06 -1e-06
            CHANNELS 3 Zrotation Yrotation Xrotation
            JOINT RightToeEnd
            {
              OFFSET -6.660062 0.232574 -2e-06
              CHANNELS 3 Zrotation Yrotation Xrotation
            }
          }
        }
      }
    }
  }
}
MOTION
Frames: 4
Frame Time: 0.03333333333333333
0.0 0.0 0.0 0.0 -0.0 0.0 -19.411781 57.026802 512.049377 76.773087 -21.447018 82.02037 25.052149 -1.72738 2.264848 -2.808613 -3.84076 -2.259744 28.11182 -2.40974 -5.085821 2.601547 3.365626 0.692945 -2.243783 -1.272335 7.227668 -42.669693 -6.787348 19.778294 4e-06 -0.0 1e-06 -0.120914 0.199485 -0.350663 -0.027663 0.359467 -0.428208 0.093143 0.016921 -0.267834 65.461975 -63.665321 -53.736237 19.840479 15.024178 -27.516424 11.480048 -4.024517 0.133593 2.00088 23.68355 16.388458 17.636595 -26.322729 52.411224 -19.466721 -14.395708 29.410471 -8e-06 -8.774871 9e-06 18.225611 -16.353556 4.534424 -0.609772 -1.795654 -3.889331 -4.807094 -11.046803 -2.937849 2.7e-05 -20.976038 0.0 -5.019978 -25.033609 -4.031884 7e-06 -0.0 -0.0 -10.634553 -5.686959 -3.565579 10.573329 -17.92296 -3.113926 1.4e-05 -13.821229 6e-06 -0.501759 -31.181623 -4.02701 -10.455342 -57.461365 7.339778 -13.982738 -7.150193 -2.875027 13.772789 -8.401497 -3.218271 0.347761 -34.211594 0.771666 -0.963028 -17.733435 2.621053 -0.0 -0.0 -0.0 -17.346453 -20.095198 -4.20177 21.757645 -1.638394 3.866406 5e-06 -6.33883 4e-06 -1.697581 -22.591812 -6.194029 -1e-06 -4e-06 -3e-06 -175.129242 -62.826149 -8.633135 76.930817 -9.830834 -82.220459 50.472019 -0.994165 -0.502903 -2.154306 37.715015 -13.465142 22.181934 -20.375778 49.93335 -16.701841 -16.743465 28.476599 -1.7e-05 -12.690539 2.6e-05 15.423704 -16.904333 1.954105 -0.105916 -1.513861 -4.275887 -5.039014 -5.612868 -2.953566 1.2e-05 -11.020503 -3.2e-05 -6.111223 -15.895332 -3.840521 -1e-06 -2e-06 -3e-06 -10.283331 -5.680291 -4.341844 11.028251 -11.302378 -2.372668 -1.384228 -14.238561 -6.320163 -0.625331 -26.924156 -3.827694 -4.065523 -48.685501 -4.017764 -13.708467 -7.363477 -3.720948 18.141077 -14.052706 -3.242727 3.1e-05 -18.78721 -4.7e-05 -0.429703 -8.456017 2.555485 -1e-06 -1e-06 0.0 -15.923456 -20.094475 -5.473615 30.419077 -7.190786 1.735863 4e-06 -8.162895 -1.4e-05 -1.861833 -22.86142 -6.167994 2e-06 -3e-06 -5e-06 137.059998 -15.632994 -10.796862 133.745407 1.478586 0.528989 -31.560911 -7.04318 -8.631738 -4.116372 1.333696 3.130409 -1.000004 -0.0 -0.0 -73.402306 19.486443 -8.120349 123.056503 0.341226 -0.238926 -108.74765 -30.206573 16.637253 -11.746037 0.298165 1.679828 -1.000003 0.0 -0.0 
0.0 0.0 0.0 0.0 -0.0 0.0 -20.623165 55.111015 523.915894 78.611816 -27.981165 84.655617 24.285395 -3.573342 1.523634 -3.29976 -2.695884 -0.739999 27.352737 -3.071427 -2.662423 4.665442 -1.709505 1.332837 -2.424607 -1.401713 3.763678 -36.135681 -8.408477 12.514867 8e-06 1e-06 0.0 -0.11548 -0.025922 -0.047214 0.244766 0.190693 0.009812 0.243126 -0.246555 -0.102664 50.294582 -69.892151 -40.504745 29.585266 6.204178 -41.800407 28.382128 -1.918712 1.013577 12.331491 32.91362 33.253796 17.636707 -26.322878 52.411533 -19.466776 -14.395669 29.410601 8e-06 -8.774892 -5e-06 19.200331 -17.04217 4.495733 -0.609782 -1.795666 -3.889349 -4.807133 -11.046884 -2.937874 -1.4e-05 -20.976198 -8e-06 -5.02003 -25.033848 -4.03196 6e-06 0.0 -0.0 -10.634594 -5.687014 -3.565609 10.57333 -17.923061 -3.113926 -8e-06 -13.821327 -4e-06 -0.501789 -31.181887 -4.027094 -12.020886 -59.511967 8.027699 -13.982793 -7.150251 -2.87506 13.77281 -8.401534 -3.218261 0.347706 -34.211876 0.771655 -0.963053 -17.733578 2.621046 0.0 -0.0 -0.0 -17.346531 -20.09535 -4.201808 21.7577 -1.638365 3.866463 -4e-06 -6.338872 -0.0 -1.697616 -22.591993 -6.194103 -0.0 -4e-06 -3e-06 -168.403137 -59.42281 -13.447734 75.63797 -8.188441 -91.131424 36.335705 -0.440905 0.053414 4.865636 36.796917 -12.306816 22.182198 -20.376081 49.933693 -16.701941 -16.743654 28.476799 -8e-06 -12.690702 1.6e-05 14.19466 -16.512175 2.933668 -0.10592 -1.513864 -4.275912 -5.039073 -5.612911 -2.953578 8e-06 -11.020632 -3e-06 -6.111345 -15.895535 -3.840521 -2e-06 -1e-06 -1e-06 -10.283422 -5.68032 -4.341868 11.028361 -11.30248 -2.372656 -1.384266 -14.238708 -6.32019 -0.625414 -26.924534 -3.827659 -3.692961 -47.012581 -4.378825 -13.708589 -7.363518 -3.720966 18.14127 -14.052837 -3.242709 2e-06 -18.787458 6e-06 -0.429724 -8.456158 2.555543 -1e-06 -1e-06 0.0 -15.923618 -20.094599 -5.473616 30.419395 -7.190864 1.735912 -1e-06 -8.163003 4e-06 -1.861915 -22.861776 -6.168009 1e-06 0.0 -2e-06 128.512054 -8.489017 -8.835237 124.307327 1.716627 0.095378 -37.959759 -18.451216 -7.336989 -11.95539 2.030855 2.163931 -0.999998 -0.0 -0.0 -63.663574 17.290871 -4.92576 122.875702 0.53022 -0.404298 -106.748596 -44.060181 12.105988 -14.69207 0.312502 1.462772 -1.000007 0.0 0.0 
0.0 0.0 0.0 0.0 -0.0 0.0 -21.27323 56.428848 535.993774 79.278755 -38.569435 89.27906 22.555836 -3.653092 0.5278 -3.145369 -1.642167 0.254342 25.655748 -4.164227 -1.463895 2.492803 -2.780743 0.448083 -2.452651 -1.886337 2.056296 -32.690807 -7.458193 7.207828 6e-06 -1e-06 2e-06 -0.157257 0.015884 -0.078228 0.23851 0.193594 0.007434 0.235186 -0.160369 -0.159278 42.860294 -75.021591 -35.422405 35.917461 -0.537059 -53.191082 42.224167 -1.473577 0.834811 20.072206 41.9519 50.033421 17.636683 -26.322748 52.411674 -19.466726 -14.395606 29.410627 1.1e-05 -8.774863 -1.5e-05 19.758459 -16.667301 4.517357 -0.609788 -1.795661 -3.889352 -4.807124 -11.046833 -2.937901 4e-06 -20.976057 -5e-05 -5.019949 -25.033672 -4.032025 5e-06 -1e-06 -2e-06 -10.634582 -5.687002 -3.565633 10.573298 -17.922962 -3.113937 1e-06 -13.821233 -2.2e-05 -0.501724 -31.181637 -4.027145 -11.780373 -61.064667 8.436807 -13.982774 -7.150237 -2.875092 13.77277 -8.401489 -3.218253 0.347742 -34.21162 0.771603 -0.963033 -17.733435 2.621027 0.0 -1e-06 -0.0 -17.346497 -20.095293 -4.201878 21.757643 -1.638361 3.866486 -2e-06 -6.338833 -5e-06 -1.697583 -22.591839 -6.194134 0.0 -6e-06 -3e-06 -160.483994 -61.632881 -17.083311 68.631592 -10.516574 -83.460266 35.801399 -1.850551 -0.41163 12.738596 36.356052 12.526142 22.182322 -20.376171 49.933941 -16.701954 -16.743595 28.47687 -3.7e-05 -12.690681 -1.2e-05 15.213556 -17.330849 2.81391 -0.105929 -1.513863 -4.275924 -5.039062 -5.612894 -2.95361 3.7e-05 -11.020613 -9e-06 -6.111274 -15.895494 -3.840575 2e-06 4e-06 -3e-06 -10.28342 -5.680303 -4.341912 11.028374 -11.302489 -2.372643 -1.384229 -14.238681 -6.320223 -0.625329 -26.92449 -3.827668 -5.112213 -47.663952 -2.716097 -13.708586 -7.363495 -3.721019 18.141275 -14.052855 -3.242688 5.6e-05 -18.78742 1.8e-05 -0.429704 -8.456139 2.555572 0.0 1e-06 0.0 -15.923571 -20.094557 -5.473714 30.419352 -7.190943 1.735958 2.4e-05 -8.162994 2e-05 -1.861836 -22.86171 -6.167984 0.0 -2e-06 -1e-06 123.624229 -1.820551 -7.452648 119.758133 3.057786 -0.266364 -47.749031 -25.314102 -6.180656 -10.757038 1.894083 2.275881 -0.999999 -0.0 -0.0 -58.823139 11.983629 -5.680459 116.293533 0.628536 -0.679011 -97.327232 -51.974682 3.677856 -14.725471 0.502984 1.424252 -1.000004 -1e-06 0.0 
0.0 0.0 0.0 0.0 -0.0 0.0 -21.058746 57.144428 548.138916 79.310425 -49.415245 92.875092 20.27972 -3.674882 -0.06029 -3.580457 -0.924889 0.753571 24.03327 -4.778534 -1.157859 0.572339 -3.529614 0.060109 -2.49399 -2.009087 1.255582 -31.343895 -5.997712 3.643089 3e-06 1e-06 -1e-06 -0.17963 0.07767 -0.114822 0.079329 0.169102 -0.023614 0.118722 -0.001699 -0.201722 28.979868 -80.082573 -23.210068 42.541588 -9.371973 -56.556633 54.192982 -0.667754 -0.179489 27.396749 48.787506 60.059891 17.636593 -26.322433 52.410984 -19.466564 -14.395556 29.410263 1.4e-05 -8.774815 -1.5e-05 19.899338 -16.764736 4.865046 -0.609777 -1.795647 -3.889314 -4.807097 -11.046743 -2.937854 2e-06 -20.975861 -4e-05 -5.019938 -25.033394 -4.031964 5e-06 -1e-06 -0.0 -10.634533 -5.68696 -3.565577 10.573237 -17.922806 -3.113899 1e-06 -13.821099 -2e-05 -0.501746 -31.181259 -4.027081 -12.158502 -62.29108 9.026464 -13.982708 -7.150182 -2.875034 13.772703 -8.401417 -3.218229 0.347743 -34.211262 0.771596 -0.963011 -17.73324 2.620988 -0.0 -2e-06 3e-06 -17.346426 -20.095135 -4.201788 21.757542 -1.638348 3.86644 -1e-06 -6.338778 -6e-06 -1.69759 -22.591593 -6.194046 -2e-06 -7e-06 -2e-06 -157.016586 -65.287651 -17.885944 64.945045 -15.316829 -78.366295 42.468067 -2.906121 -0.768512 20.90987 38.659447 31.27639 22.182148 -20.375891 49.93327 -16.701788 -16.743494 28.47648 -3.4e-05 -12.690578 -9e-06 16.41428 -17.786503 2.163028 -0.105919 -1.513847 -4.275874 -5.039023 -5.61284 -2.95356 3.4e-05 -11.020494 -1e-06 -6.111243 -15.895304 -3.840483 -1e-06 3e-06 -1e-06 -10.283352 -5.680248 -4.341844 11.028294 -11.302382 -2.372618 -1.38423 -14.238527 -6.320114 -0.625364 -26.924149 -3.827565 -5.451402 -49.069225 -2.101892 -13.7085 -7.363425 -3.720953 18.141144 -14.052726 -3.242651 5e-05 -18.787222 1.9e-05 -0.429693 -8.456044 2.555528 0.0 1e-06 -2e-06 -15.923476 -20.094372 -5.473611 30.419157 -7.190876 1.735939 2.2e-05 -8.162911 1.3e-05 -1.861846 -22.861437 -6.167897 -1e-06 -2e-06 0.0 122.182648 3.879181 -7.095237 113.127922 3.987666 -0.320428 -52.690056 -26.861382 -4.076705 -9.097384 1.942678 2.341154 -0.999995 0.0 0.0 -54.786465 6.018374 -7.301402 107.305016 -0.016785 -0.550202 -86.066788 -55.639473 -5.684406 -11.018596 0.651304 1.482904 -1.000001 -0.0 0.0 
